# xmcd CD database file
#
# Track frame offsets:
#	150
#	32496
#	75898
#	118347
#	155079
#	192799
#	243106
#	270715
#
# Disc length: 4190 seconds
#
# Revision: 0
# Processed by: cddbd v1.5.2PL0 Copyright (c) Steve Scherf et al.
# Submitted via: CDex 1.51
#
DISCID=5c105c08
DTITLE=Lee Harper's Little Big Band - plays Wayne Shorter
DYEAR=2005
DGENRE=Jazz
TTITLE0=Yes or No
TTITLE1=Night Dreamer
TTITLE2=Armageddon
TTITLE3=Prince of Darkness
TTITLE4=502 Blues
TTITLE5=Witch Hunt
TTITLE6=Black Nile
TTITLE7=Fee-Fi-Fo-Fum
EXTD=YEAR: 2005
EXTT0=
EXTT1=
EXTT2=
EXTT3=
EXTT4=
EXTT5=
EXTT6=
EXTT7=
PLAYORDER=
